# xmcd CD database file
#
# Track frame offsets:
#	150
#	23520
#	51769
#	85022
#	102677
#	136505
#	160056
#	180242
#	198405
#	220438
#
# Disc length: 3319 seconds
#
# Revision: 0
# Processed by: cddbd v1.5.2PL0 Copyright (c) Steve Scherf et al.
# Submitted via: CDex 1.51
#
DISCID=790cf50a
DTITLE=All Night Long Blues Band - All Night Long
DYEAR=2009
DGENRE=Blues
TTITLE0=Rollin' and Tumblin'
TTITLE1=Goin' Down South
TTITLE2=Po' Black Mattie
TTITLE3=Fishin' Blues
TTITLE4=Smoke Stack Lightnin'
TTITLE5=Jumper On The Line
TTITLE6=Stay All Night
TTITLE7=You Go, I Come Wich Ya
TTITLE8=Jitterbug Swing
TTITLE9=All Night Long
EXTD=YEAR: 2009
EXTT0=
EXTT1=
EXTT2=
EXTT3=
EXTT4=
EXTT5=
EXTT6=
EXTT7=
EXTT8=
EXTT9=
PLAYORDER=
